<mxfile modified="2021-02-17T02:16:36.534Z" host="332fc9b7-8cf4-4b9c-a69d-255e31837113" agent="5.0 (Windows NT 10.0; Win64; x64) AppleWebKit/537.36 (KHTML, like Gecko) Code/1.53.2 Chrome/87.0.4280.141 Electron/11.2.1 Safari/537.36" etag="rjWNBorOsrzaLQwiGKYO" version="14.2.4" type="embed">
    <diagram id="kmsEypxPmVz_Vl7ECJFX" name="PÃ¡gina-1">
        <mxGraphModel dx="694" dy="418" grid="1" gridSize="10" guides="1" tooltips="1" connect="1" arrows="1" fold="1" page="1" pageScale="1" pageWidth="1100" pageHeight="850" background="#4D4D4D" math="0" shadow="0">
            <root>
                <mxCell id="0"/>
                <mxCell id="1" parent="0"/>
                <mxCell id="DTwomelHDch7XrresBYj-5" value="ctt_users" style="swimlane;fontStyle=1;childLayout=stackLayout;horizontal=1;startSize=26;fillColor=#007FFF;horizontalStack=0;resizeParent=1;resizeParentMax=0;resizeLast=0;collapsible=1;marginBottom=0;swimlaneFillColor=#ffffff;align=center;fontSize=11;strokeColor=#007FFF;strokeWidth=2;rounded=1;fontColor=#FFFFFF;fontFamily=Tahoma;" parent="1" vertex="1">
                    <mxGeometry x="170" y="190" width="160" height="202" as="geometry"/>
                </mxCell>
                <mxCell id="DTwomelHDch7XrresBYj-6" value="usr_id" style="shape=partialRectangle;top=0;left=0;right=0;bottom=1;align=left;verticalAlign=middle;fillColor=none;spacingLeft=34;spacingRight=4;overflow=hidden;rotatable=0;points=[[0,0.5],[1,0.5]];portConstraint=eastwest;dropTarget=0;fontStyle=1;fontSize=10;fontFamily=Tahoma;strokeColor=#80A9E3;fontColor=#808080;" parent="DTwomelHDch7XrresBYj-5" vertex="1">
                    <mxGeometry y="26" width="160" height="20" as="geometry"/>
                </mxCell>
                <mxCell id="DTwomelHDch7XrresBYj-7" value="PK" style="shape=partialRectangle;top=0;left=0;bottom=0;fillColor=none;align=left;verticalAlign=middle;spacingLeft=4;spacingRight=4;overflow=hidden;rotatable=0;points=[];portConstraint=eastwest;part=1;fontSize=10;fontFamily=Tahoma;fontStyle=1;fontColor=#007FFF;strokeColor=#80A9E3;" parent="DTwomelHDch7XrresBYj-6" vertex="1" connectable="0">
                    <mxGeometry width="30" height="20" as="geometry"/>
                </mxCell>
                <mxCell id="DTwomelHDch7XrresBYj-50" value="usr_username" style="shape=partialRectangle;top=0;left=0;right=0;bottom=0;align=left;verticalAlign=top;fillColor=none;spacingLeft=33;spacingRight=3;overflow=hidden;rotatable=0;points=[[0,0.5],[1,0.5]];portConstraint=eastwest;dropTarget=0;fontSize=10;fontFamily=Tahoma;spacing=2;dashed=1;strokeColor=#80A9E3;fontColor=#808080;" parent="DTwomelHDch7XrresBYj-5" vertex="1">
                    <mxGeometry y="46" width="160" height="20" as="geometry"/>
                </mxCell>
                <mxCell id="DTwomelHDch7XrresBYj-51" value="" style="shape=partialRectangle;top=0;left=0;bottom=0;fillColor=none;align=left;verticalAlign=top;spacingLeft=4;spacingRight=4;overflow=hidden;rotatable=0;points=[];portConstraint=eastwest;part=1;fontSize=12;strokeColor=#80A9E3;" parent="DTwomelHDch7XrresBYj-50" vertex="1" connectable="0">
                    <mxGeometry width="30" height="20" as="geometry"/>
                </mxCell>
                <mxCell id="DTwomelHDch7XrresBYj-16" value="usr_password" style="shape=partialRectangle;top=0;left=0;right=0;bottom=0;align=left;verticalAlign=top;fillColor=none;spacingLeft=33;spacingRight=3;overflow=hidden;rotatable=0;points=[[0,0.5],[1,0.5]];portConstraint=eastwest;dropTarget=0;fontSize=10;fontFamily=Tahoma;spacing=2;dashed=1;strokeColor=#80A9E3;fontColor=#808080;" parent="DTwomelHDch7XrresBYj-5" vertex="1">
                    <mxGeometry y="66" width="160" height="20" as="geometry"/>
                </mxCell>
                <mxCell id="DTwomelHDch7XrresBYj-17" value="" style="shape=partialRectangle;top=0;left=0;bottom=0;fillColor=none;align=left;verticalAlign=top;spacingLeft=4;spacingRight=4;overflow=hidden;rotatable=0;points=[];portConstraint=eastwest;part=1;fontSize=12;strokeColor=#80A9E3;" parent="DTwomelHDch7XrresBYj-16" vertex="1" connectable="0">
                    <mxGeometry width="30" height="20" as="geometry"/>
                </mxCell>
                <mxCell id="DTwomelHDch7XrresBYj-10" value="usr_dt_registry" style="shape=partialRectangle;top=0;left=0;right=0;bottom=0;align=left;verticalAlign=top;fillColor=none;spacingLeft=33;spacingRight=3;overflow=hidden;rotatable=0;points=[[0,0.5],[1,0.5]];portConstraint=eastwest;dropTarget=0;fontSize=10;fontFamily=Tahoma;spacing=2;fontColor=#808080;" parent="DTwomelHDch7XrresBYj-5" vertex="1">
                    <mxGeometry y="86" width="160" height="20" as="geometry"/>
                </mxCell>
                <mxCell id="DTwomelHDch7XrresBYj-11" value="" style="shape=partialRectangle;top=0;left=0;bottom=0;fillColor=none;align=left;verticalAlign=top;spacingLeft=4;spacingRight=4;overflow=hidden;rotatable=0;points=[];portConstraint=eastwest;part=1;fontSize=12;strokeColor=#80A9E3;" parent="DTwomelHDch7XrresBYj-10" vertex="1" connectable="0">
                    <mxGeometry width="30" height="20" as="geometry"/>
                </mxCell>
                <mxCell id="DTwomelHDch7XrresBYj-18" value="usr_dt_last_access" style="shape=partialRectangle;top=0;left=0;right=0;bottom=0;align=left;verticalAlign=top;fillColor=none;spacingLeft=33;spacingRight=3;overflow=hidden;rotatable=0;points=[[0,0.5],[1,0.5]];portConstraint=eastwest;dropTarget=0;fontSize=10;fontFamily=Tahoma;spacing=2;fontColor=#808080;" parent="DTwomelHDch7XrresBYj-5" vertex="1">
                    <mxGeometry y="106" width="160" height="20" as="geometry"/>
                </mxCell>
                <mxCell id="DTwomelHDch7XrresBYj-19" value="" style="shape=partialRectangle;top=0;left=0;bottom=0;fillColor=none;align=left;verticalAlign=top;spacingLeft=4;spacingRight=4;overflow=hidden;rotatable=0;points=[];portConstraint=eastwest;part=1;fontSize=12;strokeColor=#80A9E3;" parent="DTwomelHDch7XrresBYj-18" vertex="1" connectable="0">
                    <mxGeometry width="30" height="20" as="geometry"/>
                </mxCell>
                <mxCell id="DTwomelHDch7XrresBYj-20" value="usr_dt_change_pwd" style="shape=partialRectangle;top=0;left=0;right=0;bottom=0;align=left;verticalAlign=top;fillColor=none;spacingLeft=33;spacingRight=3;overflow=hidden;rotatable=0;points=[[0,0.5],[1,0.5]];portConstraint=eastwest;dropTarget=0;fontSize=10;fontFamily=Tahoma;spacing=2;fontColor=#808080;" parent="DTwomelHDch7XrresBYj-5" vertex="1">
                    <mxGeometry y="126" width="160" height="20" as="geometry"/>
                </mxCell>
                <mxCell id="DTwomelHDch7XrresBYj-21" value="" style="shape=partialRectangle;top=0;left=0;bottom=0;fillColor=none;align=left;verticalAlign=top;spacingLeft=4;spacingRight=4;overflow=hidden;rotatable=0;points=[];portConstraint=eastwest;part=1;fontSize=12;strokeColor=#80A9E3;" parent="DTwomelHDch7XrresBYj-20" vertex="1" connectable="0">
                    <mxGeometry width="30" height="20" as="geometry"/>
                </mxCell>
                <mxCell id="DTwomelHDch7XrresBYj-56" value="prf_id" style="shape=partialRectangle;top=0;left=0;right=0;bottom=0;align=left;verticalAlign=top;fillColor=none;spacingLeft=33;spacingRight=3;overflow=hidden;rotatable=0;points=[[0,0.5],[1,0.5]];portConstraint=eastwest;dropTarget=0;fontSize=10;fontFamily=Tahoma;spacing=0;fontStyle=1;fontColor=#007FFF;" parent="DTwomelHDch7XrresBYj-5" vertex="1">
                    <mxGeometry y="146" width="160" height="20" as="geometry"/>
                </mxCell>
                <mxCell id="DTwomelHDch7XrresBYj-57" value="FK" style="shape=partialRectangle;top=0;left=0;bottom=0;fillColor=none;align=left;verticalAlign=top;spacingLeft=4;spacingRight=4;overflow=hidden;rotatable=0;points=[];portConstraint=eastwest;part=1;fontSize=10;strokeColor=#80A9E3;fontColor=#007FFF;fontStyle=1" parent="DTwomelHDch7XrresBYj-56" vertex="1" connectable="0">
                    <mxGeometry width="30" height="20" as="geometry"/>
                </mxCell>
                <mxCell id="NpeDpYfCRGFBXlgMX1ir-12" value="emp_id" style="shape=partialRectangle;top=0;left=0;right=0;bottom=0;align=left;verticalAlign=top;fillColor=none;spacingLeft=33;spacingRight=3;overflow=hidden;rotatable=0;points=[[0,0.5],[1,0.5]];portConstraint=eastwest;dropTarget=0;fontSize=10;fontFamily=Tahoma;spacing=0;fontStyle=1;fontColor=#007FFF;" parent="DTwomelHDch7XrresBYj-5" vertex="1">
                    <mxGeometry y="166" width="160" height="20" as="geometry"/>
                </mxCell>
                <mxCell id="NpeDpYfCRGFBXlgMX1ir-13" value="FK" style="shape=partialRectangle;top=0;left=0;bottom=0;fillColor=none;align=left;verticalAlign=top;spacingLeft=4;spacingRight=4;overflow=hidden;rotatable=0;points=[];portConstraint=eastwest;part=1;fontSize=10;strokeColor=#80A9E3;fontColor=#007FFF;fontStyle=1" parent="NpeDpYfCRGFBXlgMX1ir-12" vertex="1" connectable="0">
                    <mxGeometry width="30" height="20" as="geometry"/>
                </mxCell>
                <mxCell id="DTwomelHDch7XrresBYj-12" value="" style="shape=partialRectangle;top=0;left=0;right=0;bottom=0;align=left;verticalAlign=top;fillColor=none;spacingLeft=33;spacingRight=3;overflow=hidden;rotatable=0;points=[[0,0.5],[1,0.5]];portConstraint=eastwest;dropTarget=0;fontSize=10;fontFamily=Tahoma;spacing=2;" parent="DTwomelHDch7XrresBYj-5" vertex="1">
                    <mxGeometry y="186" width="160" height="16" as="geometry"/>
                </mxCell>
                <mxCell id="DTwomelHDch7XrresBYj-13" value="" style="shape=partialRectangle;top=0;left=0;bottom=0;fillColor=none;align=left;verticalAlign=top;spacingLeft=4;spacingRight=4;overflow=hidden;rotatable=0;points=[];portConstraint=eastwest;part=1;fontSize=12;strokeColor=#80A9E3;" parent="DTwomelHDch7XrresBYj-12" vertex="1" connectable="0">
                    <mxGeometry width="30" height="16" as="geometry"/>
                </mxCell>
                <mxCell id="DTwomelHDch7XrresBYj-22" value="ctt_profiles" style="swimlane;fontStyle=1;childLayout=stackLayout;horizontal=1;startSize=26;fillColor=#007FFF;horizontalStack=0;resizeParent=1;resizeParentMax=0;resizeLast=0;collapsible=1;marginBottom=0;swimlaneFillColor=#ffffff;align=center;fontSize=11;strokeColor=#007FFF;strokeWidth=2;rounded=1;fontColor=#FFFFFF;fontFamily=Tahoma;" parent="1" vertex="1">
                    <mxGeometry x="390" y="205" width="160" height="142" as="geometry"/>
                </mxCell>
                <mxCell id="DTwomelHDch7XrresBYj-23" value="prf_id" style="shape=partialRectangle;top=0;left=0;right=0;bottom=1;align=left;verticalAlign=middle;fillColor=none;spacingLeft=34;spacingRight=4;overflow=hidden;rotatable=0;points=[[0,0.5],[1,0.5]];portConstraint=eastwest;dropTarget=0;fontStyle=1;fontSize=10;fontFamily=Tahoma;strokeColor=#80A9E3;fontColor=#808080;" parent="DTwomelHDch7XrresBYj-22" vertex="1">
                    <mxGeometry y="26" width="160" height="20" as="geometry"/>
                </mxCell>
                <mxCell id="DTwomelHDch7XrresBYj-24" value="PK" style="shape=partialRectangle;top=0;left=0;bottom=0;fillColor=none;align=left;verticalAlign=middle;spacingLeft=4;spacingRight=4;overflow=hidden;rotatable=0;points=[];portConstraint=eastwest;part=1;fontSize=10;fontFamily=Tahoma;fontStyle=1;fontColor=#007FFF;strokeColor=#80A9E3;" parent="DTwomelHDch7XrresBYj-23" vertex="1" connectable="0">
                    <mxGeometry width="30" height="20" as="geometry"/>
                </mxCell>
                <mxCell id="DTwomelHDch7XrresBYj-25" value="prf_code" style="shape=partialRectangle;top=0;left=0;right=0;bottom=0;align=left;verticalAlign=top;fillColor=none;spacingLeft=33;spacingRight=3;overflow=hidden;rotatable=0;points=[[0,0.5],[1,0.5]];portConstraint=eastwest;dropTarget=0;fontSize=10;fontFamily=Tahoma;spacing=2;dashed=1;strokeColor=#80A9E3;fontColor=#808080;" parent="DTwomelHDch7XrresBYj-22" vertex="1">
                    <mxGeometry y="46" width="160" height="20" as="geometry"/>
                </mxCell>
                <mxCell id="DTwomelHDch7XrresBYj-26" value="" style="shape=partialRectangle;top=0;left=0;bottom=0;fillColor=none;align=left;verticalAlign=top;spacingLeft=4;spacingRight=4;overflow=hidden;rotatable=0;points=[];portConstraint=eastwest;part=1;fontSize=12;strokeColor=#80A9E3;" parent="DTwomelHDch7XrresBYj-25" vertex="1" connectable="0">
                    <mxGeometry width="30" height="20" as="geometry"/>
                </mxCell>
                <mxCell id="DTwomelHDch7XrresBYj-27" value="prf_name" style="shape=partialRectangle;top=0;left=0;right=0;bottom=0;align=left;verticalAlign=top;fillColor=none;spacingLeft=33;spacingRight=3;overflow=hidden;rotatable=0;points=[[0,0.5],[1,0.5]];portConstraint=eastwest;dropTarget=0;fontSize=10;fontFamily=Tahoma;spacing=2;strokeColor=#80A9E3;dashed=1;fontColor=#808080;" parent="DTwomelHDch7XrresBYj-22" vertex="1">
                    <mxGeometry y="66" width="160" height="20" as="geometry"/>
                </mxCell>
                <mxCell id="DTwomelHDch7XrresBYj-28" value="" style="shape=partialRectangle;top=0;left=0;bottom=0;fillColor=none;align=left;verticalAlign=top;spacingLeft=4;spacingRight=4;overflow=hidden;rotatable=0;points=[];portConstraint=eastwest;part=1;fontSize=12;strokeColor=#80A9E3;" parent="DTwomelHDch7XrresBYj-27" vertex="1" connectable="0">
                    <mxGeometry width="30" height="20" as="geometry"/>
                </mxCell>
                <mxCell id="DTwomelHDch7XrresBYj-31" value="prf_description" style="shape=partialRectangle;top=0;left=0;right=0;bottom=0;align=left;verticalAlign=top;fillColor=none;spacingLeft=33;spacingRight=3;overflow=hidden;rotatable=0;points=[[0,0.5],[1,0.5]];portConstraint=eastwest;dropTarget=0;fontSize=10;fontFamily=Tahoma;spacing=2;fontColor=#808080;" parent="DTwomelHDch7XrresBYj-22" vertex="1">
                    <mxGeometry y="86" width="160" height="20" as="geometry"/>
                </mxCell>
                <mxCell id="DTwomelHDch7XrresBYj-32" value="" style="shape=partialRectangle;top=0;left=0;bottom=0;fillColor=none;align=left;verticalAlign=top;spacingLeft=4;spacingRight=4;overflow=hidden;rotatable=0;points=[];portConstraint=eastwest;part=1;fontSize=12;strokeColor=#80A9E3;" parent="DTwomelHDch7XrresBYj-31" vertex="1" connectable="0">
                    <mxGeometry width="30" height="20" as="geometry"/>
                </mxCell>
                <mxCell id="DTwomelHDch7XrresBYj-29" value="prf_mod_start" style="shape=partialRectangle;top=0;left=0;right=0;bottom=0;align=left;verticalAlign=top;fillColor=none;spacingLeft=33;spacingRight=3;overflow=hidden;rotatable=0;points=[[0,0.5],[1,0.5]];portConstraint=eastwest;dropTarget=0;fontSize=10;fontFamily=Tahoma;spacing=2;fontColor=#808080;" parent="DTwomelHDch7XrresBYj-22" vertex="1">
                    <mxGeometry y="106" width="160" height="20" as="geometry"/>
                </mxCell>
                <mxCell id="DTwomelHDch7XrresBYj-30" value="" style="shape=partialRectangle;top=0;left=0;bottom=0;fillColor=none;align=left;verticalAlign=top;spacingLeft=4;spacingRight=4;overflow=hidden;rotatable=0;points=[];portConstraint=eastwest;part=1;fontSize=12;strokeColor=#80A9E3;" parent="DTwomelHDch7XrresBYj-29" vertex="1" connectable="0">
                    <mxGeometry width="30" height="20" as="geometry"/>
                </mxCell>
                <mxCell id="DTwomelHDch7XrresBYj-35" value="" style="shape=partialRectangle;top=0;left=0;right=0;bottom=0;align=left;verticalAlign=top;fillColor=none;spacingLeft=33;spacingRight=3;overflow=hidden;rotatable=0;points=[[0,0.5],[1,0.5]];portConstraint=eastwest;dropTarget=0;fontSize=10;fontFamily=Tahoma;spacing=2;" parent="DTwomelHDch7XrresBYj-22" vertex="1">
                    <mxGeometry y="126" width="160" height="16" as="geometry"/>
                </mxCell>
                <mxCell id="DTwomelHDch7XrresBYj-36" value="" style="shape=partialRectangle;top=0;left=0;bottom=0;fillColor=none;align=left;verticalAlign=top;spacingLeft=4;spacingRight=4;overflow=hidden;rotatable=0;points=[];portConstraint=eastwest;part=1;fontSize=12;strokeColor=#80A9E3;" parent="DTwomelHDch7XrresBYj-35" vertex="1" connectable="0">
                    <mxGeometry width="30" height="16" as="geometry"/>
                </mxCell>
                <mxCell id="DTwomelHDch7XrresBYj-37" value="ctt_modules" style="swimlane;fontStyle=1;childLayout=stackLayout;horizontal=1;startSize=26;fillColor=#007FFF;horizontalStack=0;resizeParent=1;resizeParentMax=0;resizeLast=0;collapsible=1;marginBottom=0;swimlaneFillColor=#ffffff;align=center;fontSize=11;strokeColor=#007FFF;strokeWidth=2;rounded=1;fontColor=#FFFFFF;fontFamily=Tahoma;" parent="1" vertex="1">
                    <mxGeometry x="610" y="205" width="160" height="142" as="geometry"/>
                </mxCell>
                <mxCell id="DTwomelHDch7XrresBYj-38" value="mod_id" style="shape=partialRectangle;top=0;left=0;right=0;bottom=1;align=left;verticalAlign=middle;fillColor=none;spacingLeft=34;spacingRight=4;overflow=hidden;rotatable=0;points=[[0,0.5],[1,0.5]];portConstraint=eastwest;dropTarget=0;fontStyle=1;fontSize=10;fontFamily=Tahoma;strokeColor=#80A9E3;spacing=0;fontColor=#808080;" parent="DTwomelHDch7XrresBYj-37" vertex="1">
                    <mxGeometry y="26" width="160" height="20" as="geometry"/>
                </mxCell>
                <mxCell id="DTwomelHDch7XrresBYj-39" value="PK" style="shape=partialRectangle;top=0;left=0;bottom=0;fillColor=none;align=center;verticalAlign=middle;spacingLeft=0;spacingRight=0;overflow=hidden;rotatable=0;points=[];portConstraint=eastwest;part=1;fontSize=10;fontFamily=Tahoma;fontStyle=1;fontColor=#007FFF;strokeColor=#80A9E3;spacing=3;" parent="DTwomelHDch7XrresBYj-38" vertex="1" connectable="0">
                    <mxGeometry width="30" height="20" as="geometry"/>
                </mxCell>
                <mxCell id="DTwomelHDch7XrresBYj-40" value="mod_code" style="shape=partialRectangle;top=0;left=0;right=0;bottom=0;align=left;verticalAlign=top;fillColor=none;spacingLeft=33;spacingRight=3;overflow=hidden;rotatable=0;points=[[0,0.5],[1,0.5]];portConstraint=eastwest;dropTarget=0;fontSize=10;fontFamily=Tahoma;spacing=0;dashed=1;strokeColor=#80A9E3;fontColor=#808080;" parent="DTwomelHDch7XrresBYj-37" vertex="1">
                    <mxGeometry y="46" width="160" height="20" as="geometry"/>
                </mxCell>
                <mxCell id="DTwomelHDch7XrresBYj-41" value="" style="shape=partialRectangle;top=0;left=0;bottom=0;fillColor=none;align=left;verticalAlign=top;spacingLeft=4;spacingRight=4;overflow=hidden;rotatable=0;points=[];portConstraint=eastwest;part=1;fontSize=12;strokeColor=#80A9E3;" parent="DTwomelHDch7XrresBYj-40" vertex="1" connectable="0">
                    <mxGeometry width="30" height="20" as="geometry"/>
                </mxCell>
                <mxCell id="DTwomelHDch7XrresBYj-42" value="mod_name" style="shape=partialRectangle;top=0;left=0;right=0;bottom=0;align=left;verticalAlign=top;fillColor=none;spacingLeft=33;spacingRight=3;overflow=hidden;rotatable=0;points=[[0,0.5],[1,0.5]];portConstraint=eastwest;dropTarget=0;fontSize=10;fontFamily=Tahoma;spacing=0;strokeColor=#80A9E3;dashed=1;fontColor=#808080;" parent="DTwomelHDch7XrresBYj-37" vertex="1">
                    <mxGeometry y="66" width="160" height="20" as="geometry"/>
                </mxCell>
                <mxCell id="DTwomelHDch7XrresBYj-43" value="" style="shape=partialRectangle;top=0;left=0;bottom=0;fillColor=none;align=left;verticalAlign=top;spacingLeft=4;spacingRight=4;overflow=hidden;rotatable=0;points=[];portConstraint=eastwest;part=1;fontSize=12;strokeColor=#80A9E3;" parent="DTwomelHDch7XrresBYj-42" vertex="1" connectable="0">
                    <mxGeometry width="30" height="20" as="geometry"/>
                </mxCell>
                <mxCell id="DTwomelHDch7XrresBYj-46" value="mod_description" style="shape=partialRectangle;top=0;left=0;right=0;bottom=0;align=left;verticalAlign=top;fillColor=none;spacingLeft=33;spacingRight=3;overflow=hidden;rotatable=0;points=[[0,0.5],[1,0.5]];portConstraint=eastwest;dropTarget=0;fontSize=10;fontFamily=Tahoma;spacing=0;fontColor=#808080;" parent="DTwomelHDch7XrresBYj-37" vertex="1">
                    <mxGeometry y="86" width="160" height="20" as="geometry"/>
                </mxCell>
                <mxCell id="DTwomelHDch7XrresBYj-47" value="" style="shape=partialRectangle;top=0;left=0;bottom=0;fillColor=none;align=left;verticalAlign=top;spacingLeft=4;spacingRight=4;overflow=hidden;rotatable=0;points=[];portConstraint=eastwest;part=1;fontSize=12;strokeColor=#80A9E3;" parent="DTwomelHDch7XrresBYj-46" vertex="1" connectable="0">
                    <mxGeometry width="30" height="20" as="geometry"/>
                </mxCell>
                <mxCell id="2ElAnhHRASjZXcA__IW0-15" value="mod_item" style="shape=partialRectangle;top=0;left=0;right=0;bottom=0;align=left;verticalAlign=top;fillColor=none;spacingLeft=33;spacingRight=3;overflow=hidden;rotatable=0;points=[[0,0.5],[1,0.5]];portConstraint=eastwest;dropTarget=0;fontSize=10;fontFamily=Tahoma;spacing=0;fontColor=#808080;" parent="DTwomelHDch7XrresBYj-37" vertex="1">
                    <mxGeometry y="106" width="160" height="20" as="geometry"/>
                </mxCell>
                <mxCell id="2ElAnhHRASjZXcA__IW0-16" value="" style="shape=partialRectangle;top=0;left=0;bottom=0;fillColor=none;align=left;verticalAlign=top;spacingLeft=4;spacingRight=4;overflow=hidden;rotatable=0;points=[];portConstraint=eastwest;part=1;fontSize=12;strokeColor=#80A9E3;" parent="2ElAnhHRASjZXcA__IW0-15" vertex="1" connectable="0">
                    <mxGeometry width="30" height="20" as="geometry"/>
                </mxCell>
                <mxCell id="DTwomelHDch7XrresBYj-48" value="" style="shape=partialRectangle;top=0;left=0;right=0;bottom=0;align=left;verticalAlign=top;fillColor=none;spacingLeft=33;spacingRight=3;overflow=hidden;rotatable=0;points=[[0,0.5],[1,0.5]];portConstraint=eastwest;dropTarget=0;fontSize=10;fontFamily=Tahoma;spacing=2;" parent="DTwomelHDch7XrresBYj-37" vertex="1">
                    <mxGeometry y="126" width="160" height="16" as="geometry"/>
                </mxCell>
                <mxCell id="DTwomelHDch7XrresBYj-49" value="" style="shape=partialRectangle;top=0;left=0;bottom=0;fillColor=none;align=left;verticalAlign=top;spacingLeft=4;spacingRight=4;overflow=hidden;rotatable=0;points=[];portConstraint=eastwest;part=1;fontSize=12;strokeColor=#80A9E3;" parent="DTwomelHDch7XrresBYj-48" vertex="1" connectable="0">
                    <mxGeometry width="30" height="16" as="geometry"/>
                </mxCell>
                <mxCell id="DTwomelHDch7XrresBYj-59" style="edgeStyle=orthogonalEdgeStyle;rounded=1;orthogonalLoop=1;jettySize=auto;html=1;entryX=1;entryY=0.5;entryDx=0;entryDy=0;strokeColor=#007FFF;fontFamily=Tahoma;fontSize=10;fontColor=#007FFF;endArrow=ERzeroToMany;endFill=1;startArrow=ERzeroToOne;startFill=1;strokeWidth=2;" parent="1" source="DTwomelHDch7XrresBYj-23" target="DTwomelHDch7XrresBYj-56" edge="1">
                    <mxGeometry relative="1" as="geometry"/>
                </mxCell>
                <mxCell id="DTwomelHDch7XrresBYj-60" value="ctt_profile_module" style="swimlane;fontStyle=1;childLayout=stackLayout;horizontal=1;startSize=26;fillColor=#007FFF;horizontalStack=0;resizeParent=1;resizeParentMax=0;resizeLast=0;collapsible=1;marginBottom=0;swimlaneFillColor=#ffffff;align=center;fontSize=11;strokeColor=#007FFF;strokeWidth=2;rounded=1;fontColor=#FFFFFF;fontFamily=Tahoma;" parent="1" vertex="1">
                    <mxGeometry x="390.99999999999994" y="370" width="160" height="102" as="geometry"/>
                </mxCell>
                <mxCell id="DTwomelHDch7XrresBYj-61" value="pfm_id" style="shape=partialRectangle;top=0;left=0;right=0;bottom=1;align=left;verticalAlign=middle;fillColor=none;spacingLeft=34;spacingRight=4;overflow=hidden;rotatable=0;points=[[0,0.5],[1,0.5]];portConstraint=eastwest;dropTarget=0;fontStyle=1;fontSize=10;fontFamily=Tahoma;strokeColor=#80A9E3;fontColor=#808080;" parent="DTwomelHDch7XrresBYj-60" vertex="1">
                    <mxGeometry y="26" width="160" height="20" as="geometry"/>
                </mxCell>
                <mxCell id="DTwomelHDch7XrresBYj-62" value="PK" style="shape=partialRectangle;top=0;left=0;bottom=0;fillColor=none;align=left;verticalAlign=middle;spacingLeft=4;spacingRight=4;overflow=hidden;rotatable=0;points=[];portConstraint=eastwest;part=1;fontSize=10;fontFamily=Tahoma;fontStyle=1;fontColor=#007FFF;strokeColor=#80A9E3;" parent="DTwomelHDch7XrresBYj-61" vertex="1" connectable="0">
                    <mxGeometry width="30" height="20" as="geometry"/>
                </mxCell>
                <mxCell id="DTwomelHDch7XrresBYj-71" value="prf_id" style="shape=partialRectangle;top=0;left=0;right=0;bottom=0;align=left;verticalAlign=top;fillColor=none;spacingLeft=33;spacingRight=3;overflow=hidden;rotatable=0;points=[[0,0.5],[1,0.5]];portConstraint=eastwest;dropTarget=0;fontSize=10;fontFamily=Tahoma;spacing=0;fontStyle=1;fontColor=#007FFF;" parent="DTwomelHDch7XrresBYj-60" vertex="1">
                    <mxGeometry y="46" width="160" height="20" as="geometry"/>
                </mxCell>
                <mxCell id="DTwomelHDch7XrresBYj-72" value="FK" style="shape=partialRectangle;top=0;left=0;bottom=0;fillColor=none;align=left;verticalAlign=top;spacingLeft=4;spacingRight=4;overflow=hidden;rotatable=0;points=[];portConstraint=eastwest;part=1;fontSize=10;strokeColor=#80A9E3;fontColor=#007FFF;fontStyle=1" parent="DTwomelHDch7XrresBYj-71" vertex="1" connectable="0">
                    <mxGeometry width="30" height="20" as="geometry"/>
                </mxCell>
                <mxCell id="DTwomelHDch7XrresBYj-73" value="mod_id" style="shape=partialRectangle;top=0;left=0;right=0;bottom=0;align=left;verticalAlign=top;fillColor=none;spacingLeft=33;spacingRight=3;overflow=hidden;rotatable=0;points=[[0,0.5],[1,0.5]];portConstraint=eastwest;dropTarget=0;fontSize=10;fontFamily=Tahoma;spacing=0;fontStyle=1;fontColor=#007FFF;" parent="DTwomelHDch7XrresBYj-60" vertex="1">
                    <mxGeometry y="66" width="160" height="20" as="geometry"/>
                </mxCell>
                <mxCell id="DTwomelHDch7XrresBYj-74" value="FK" style="shape=partialRectangle;top=0;left=0;bottom=0;fillColor=none;align=left;verticalAlign=top;spacingLeft=4;spacingRight=4;overflow=hidden;rotatable=0;points=[];portConstraint=eastwest;part=1;fontSize=10;strokeColor=#80A9E3;fontColor=#007FFF;fontStyle=1" parent="DTwomelHDch7XrresBYj-73" vertex="1" connectable="0">
                    <mxGeometry width="30" height="20" as="geometry"/>
                </mxCell>
                <mxCell id="DTwomelHDch7XrresBYj-69" value="" style="shape=partialRectangle;top=0;left=0;right=0;bottom=0;align=left;verticalAlign=top;fillColor=none;spacingLeft=33;spacingRight=3;overflow=hidden;rotatable=0;points=[[0,0.5],[1,0.5]];portConstraint=eastwest;dropTarget=0;fontSize=10;fontFamily=Tahoma;spacing=2;" parent="DTwomelHDch7XrresBYj-60" vertex="1">
                    <mxGeometry y="86" width="160" height="16" as="geometry"/>
                </mxCell>
                <mxCell id="DTwomelHDch7XrresBYj-70" value="" style="shape=partialRectangle;top=0;left=0;bottom=0;fillColor=none;align=left;verticalAlign=top;spacingLeft=4;spacingRight=4;overflow=hidden;rotatable=0;points=[];portConstraint=eastwest;part=1;fontSize=12;strokeColor=#80A9E3;" parent="DTwomelHDch7XrresBYj-69" vertex="1" connectable="0">
                    <mxGeometry width="30" height="16" as="geometry"/>
                </mxCell>
                <mxCell id="DTwomelHDch7XrresBYj-75" style="edgeStyle=orthogonalEdgeStyle;rounded=1;orthogonalLoop=1;jettySize=auto;html=1;entryX=1;entryY=0.5;entryDx=0;entryDy=0;startArrow=ERzeroToOne;startFill=1;endArrow=ERzeroToMany;endFill=1;strokeColor=#007FFF;strokeWidth=2;fontFamily=Tahoma;fontSize=10;fontColor=#007FFF;" parent="1" source="DTwomelHDch7XrresBYj-23" target="DTwomelHDch7XrresBYj-71" edge="1">
                    <mxGeometry relative="1" as="geometry"/>
                </mxCell>
                <mxCell id="DTwomelHDch7XrresBYj-76" style="edgeStyle=orthogonalEdgeStyle;rounded=1;orthogonalLoop=1;jettySize=auto;html=1;entryX=1;entryY=0.5;entryDx=0;entryDy=0;startArrow=ERzeroToOne;startFill=1;endArrow=ERzeroToMany;endFill=1;strokeColor=#007FFF;strokeWidth=2;fontFamily=Tahoma;fontSize=10;fontColor=#007FFF;" parent="1" source="DTwomelHDch7XrresBYj-38" target="DTwomelHDch7XrresBYj-73" edge="1">
                    <mxGeometry relative="1" as="geometry"/>
                </mxCell>
                <mxCell id="DTwomelHDch7XrresBYj-77" value="ctt_user_module" style="swimlane;fontStyle=1;childLayout=stackLayout;horizontal=1;startSize=26;fillColor=#007FFF;horizontalStack=0;resizeParent=1;resizeParentMax=0;resizeLast=0;collapsible=1;marginBottom=0;swimlaneFillColor=#ffffff;align=center;fontSize=11;strokeColor=#007FFF;strokeWidth=2;rounded=1;fontColor=#FFFFFF;fontFamily=Tahoma;" parent="1" vertex="1">
                    <mxGeometry x="390" y="90" width="160" height="102" as="geometry"/>
                </mxCell>
                <mxCell id="DTwomelHDch7XrresBYj-78" value="urm_id" style="shape=partialRectangle;top=0;left=0;right=0;bottom=1;align=left;verticalAlign=middle;fillColor=none;spacingLeft=34;spacingRight=4;overflow=hidden;rotatable=0;points=[[0,0.5],[1,0.5]];portConstraint=eastwest;dropTarget=0;fontStyle=1;fontSize=10;fontFamily=Tahoma;strokeColor=#80A9E3;fontColor=#808080;" parent="DTwomelHDch7XrresBYj-77" vertex="1">
                    <mxGeometry y="26" width="160" height="20" as="geometry"/>
                </mxCell>
                <mxCell id="DTwomelHDch7XrresBYj-79" value="PK" style="shape=partialRectangle;top=0;left=0;bottom=0;fillColor=none;align=left;verticalAlign=middle;spacingLeft=4;spacingRight=4;overflow=hidden;rotatable=0;points=[];portConstraint=eastwest;part=1;fontSize=10;fontFamily=Tahoma;fontStyle=1;fontColor=#007FFF;strokeColor=#80A9E3;" parent="DTwomelHDch7XrresBYj-78" vertex="1" connectable="0">
                    <mxGeometry width="30" height="20" as="geometry"/>
                </mxCell>
                <mxCell id="DTwomelHDch7XrresBYj-80" value="usr_id" style="shape=partialRectangle;top=0;left=0;right=0;bottom=0;align=left;verticalAlign=top;fillColor=none;spacingLeft=33;spacingRight=3;overflow=hidden;rotatable=0;points=[[0,0.5],[1,0.5]];portConstraint=eastwest;dropTarget=0;fontSize=10;fontFamily=Tahoma;spacing=0;fontStyle=1;fontColor=#007FFF;" parent="DTwomelHDch7XrresBYj-77" vertex="1">
                    <mxGeometry y="46" width="160" height="20" as="geometry"/>
                </mxCell>
                <mxCell id="DTwomelHDch7XrresBYj-81" value="FK" style="shape=partialRectangle;top=0;left=0;bottom=0;fillColor=none;align=left;verticalAlign=top;spacingLeft=4;spacingRight=4;overflow=hidden;rotatable=0;points=[];portConstraint=eastwest;part=1;fontSize=10;strokeColor=#80A9E3;fontColor=#007FFF;fontStyle=1" parent="DTwomelHDch7XrresBYj-80" vertex="1" connectable="0">
                    <mxGeometry width="30" height="20" as="geometry"/>
                </mxCell>
                <mxCell id="DTwomelHDch7XrresBYj-82" value="mod_id" style="shape=partialRectangle;top=0;left=0;right=0;bottom=0;align=left;verticalAlign=top;fillColor=none;spacingLeft=33;spacingRight=3;overflow=hidden;rotatable=0;points=[[0,0.5],[1,0.5]];portConstraint=eastwest;dropTarget=0;fontSize=10;fontFamily=Tahoma;spacing=0;fontStyle=1;fontColor=#007FFF;" parent="DTwomelHDch7XrresBYj-77" vertex="1">
                    <mxGeometry y="66" width="160" height="20" as="geometry"/>
                </mxCell>
                <mxCell id="DTwomelHDch7XrresBYj-83" value="FK" style="shape=partialRectangle;top=0;left=0;bottom=0;fillColor=none;align=left;verticalAlign=top;spacingLeft=4;spacingRight=4;overflow=hidden;rotatable=0;points=[];portConstraint=eastwest;part=1;fontSize=10;strokeColor=#80A9E3;fontColor=#007FFF;fontStyle=1" parent="DTwomelHDch7XrresBYj-82" vertex="1" connectable="0">
                    <mxGeometry width="30" height="20" as="geometry"/>
                </mxCell>
                <mxCell id="DTwomelHDch7XrresBYj-84" value="" style="shape=partialRectangle;top=0;left=0;right=0;bottom=0;align=left;verticalAlign=top;fillColor=none;spacingLeft=33;spacingRight=3;overflow=hidden;rotatable=0;points=[[0,0.5],[1,0.5]];portConstraint=eastwest;dropTarget=0;fontSize=10;fontFamily=Tahoma;spacing=2;" parent="DTwomelHDch7XrresBYj-77" vertex="1">
                    <mxGeometry y="86" width="160" height="16" as="geometry"/>
                </mxCell>
                <mxCell id="DTwomelHDch7XrresBYj-85" value="" style="shape=partialRectangle;top=0;left=0;bottom=0;fillColor=none;align=left;verticalAlign=top;spacingLeft=4;spacingRight=4;overflow=hidden;rotatable=0;points=[];portConstraint=eastwest;part=1;fontSize=12;strokeColor=#80A9E3;" parent="DTwomelHDch7XrresBYj-84" vertex="1" connectable="0">
                    <mxGeometry width="30" height="16" as="geometry"/>
                </mxCell>
                <mxCell id="DTwomelHDch7XrresBYj-86" style="edgeStyle=orthogonalEdgeStyle;rounded=1;orthogonalLoop=1;jettySize=auto;html=1;entryX=-0.011;entryY=0.729;entryDx=0;entryDy=0;entryPerimeter=0;startArrow=ERzeroToOne;startFill=1;endArrow=ERzeroToMany;endFill=1;strokeColor=#007FFF;strokeWidth=2;fontFamily=Tahoma;fontSize=10;fontColor=#007FFF;" parent="1" source="DTwomelHDch7XrresBYj-6" target="DTwomelHDch7XrresBYj-80" edge="1">
                    <mxGeometry relative="1" as="geometry"/>
                </mxCell>
                <mxCell id="DTwomelHDch7XrresBYj-87" style="edgeStyle=orthogonalEdgeStyle;rounded=1;orthogonalLoop=1;jettySize=auto;html=1;entryX=1;entryY=0.5;entryDx=0;entryDy=0;startArrow=ERzeroToOne;startFill=1;endArrow=ERzeroToMany;endFill=1;strokeColor=#007FFF;strokeWidth=2;fontFamily=Tahoma;fontSize=10;fontColor=#007FFF;" parent="1" source="DTwomelHDch7XrresBYj-38" target="DTwomelHDch7XrresBYj-82" edge="1">
                    <mxGeometry relative="1" as="geometry"/>
                </mxCell>
                <mxCell id="NpeDpYfCRGFBXlgMX1ir-1" value="ctt_employees" style="swimlane;fontStyle=1;childLayout=stackLayout;horizontal=1;startSize=26;fillColor=#66B2FF;horizontalStack=0;resizeParent=1;resizeParentMax=0;resizeLast=0;collapsible=1;marginBottom=0;swimlaneFillColor=#ffffff;align=center;fontSize=11;strokeColor=#66B2FF;strokeWidth=2;rounded=1;fontColor=#FFFFFF;fontFamily=Tahoma;" parent="1" vertex="1">
                    <mxGeometry x="170" y="570" width="160" height="142" as="geometry"/>
                </mxCell>
                <mxCell id="NpeDpYfCRGFBXlgMX1ir-2" value="emp_id" style="shape=partialRectangle;top=0;left=0;right=0;bottom=1;align=left;verticalAlign=middle;fillColor=none;spacingLeft=34;spacingRight=4;overflow=hidden;rotatable=0;points=[[0,0.5],[1,0.5]];portConstraint=eastwest;dropTarget=0;fontStyle=1;fontSize=10;fontFamily=Tahoma;strokeColor=#80A9E3;fontColor=#808080;" parent="NpeDpYfCRGFBXlgMX1ir-1" vertex="1">
                    <mxGeometry y="26" width="160" height="20" as="geometry"/>
                </mxCell>
                <mxCell id="NpeDpYfCRGFBXlgMX1ir-3" value="PK" style="shape=partialRectangle;top=0;left=0;bottom=0;fillColor=none;align=left;verticalAlign=middle;spacingLeft=4;spacingRight=4;overflow=hidden;rotatable=0;points=[];portConstraint=eastwest;part=1;fontSize=10;fontFamily=Tahoma;fontStyle=1;fontColor=#007FFF;strokeColor=#80A9E3;" parent="NpeDpYfCRGFBXlgMX1ir-2" vertex="1" connectable="0">
                    <mxGeometry width="30" height="20" as="geometry"/>
                </mxCell>
                <mxCell id="NpeDpYfCRGFBXlgMX1ir-30" value="emp_number" style="shape=partialRectangle;top=0;left=0;right=0;bottom=0;align=left;verticalAlign=top;fillColor=none;spacingLeft=33;spacingRight=3;overflow=hidden;rotatable=0;points=[[0,0.5],[1,0.5]];portConstraint=eastwest;dropTarget=0;fontSize=10;fontFamily=Tahoma;spacing=2;strokeColor=#80A9E3;dashed=1;fontColor=#808080;" parent="NpeDpYfCRGFBXlgMX1ir-1" vertex="1">
                    <mxGeometry y="46" width="160" height="20" as="geometry"/>
                </mxCell>
                <mxCell id="NpeDpYfCRGFBXlgMX1ir-31" value="" style="shape=partialRectangle;top=0;left=0;bottom=0;fillColor=none;align=left;verticalAlign=top;spacingLeft=4;spacingRight=4;overflow=hidden;rotatable=0;points=[];portConstraint=eastwest;part=1;fontSize=12;strokeColor=#80A9E3;" parent="NpeDpYfCRGFBXlgMX1ir-30" vertex="1" connectable="0">
                    <mxGeometry width="30" height="20" as="geometry"/>
                </mxCell>
                <mxCell id="NpeDpYfCRGFBXlgMX1ir-4" value="emp_fullname" style="shape=partialRectangle;top=0;left=0;right=0;bottom=0;align=left;verticalAlign=top;fillColor=none;spacingLeft=33;spacingRight=3;overflow=hidden;rotatable=0;points=[[0,0.5],[1,0.5]];portConstraint=eastwest;dropTarget=0;fontSize=10;fontFamily=Tahoma;spacing=2;dashed=1;strokeColor=#80A9E3;fontColor=#808080;" parent="NpeDpYfCRGFBXlgMX1ir-1" vertex="1">
                    <mxGeometry y="66" width="160" height="20" as="geometry"/>
                </mxCell>
                <mxCell id="NpeDpYfCRGFBXlgMX1ir-5" value="" style="shape=partialRectangle;top=0;left=0;bottom=0;fillColor=none;align=left;verticalAlign=top;spacingLeft=4;spacingRight=4;overflow=hidden;rotatable=0;points=[];portConstraint=eastwest;part=1;fontSize=12;strokeColor=#80A9E3;" parent="NpeDpYfCRGFBXlgMX1ir-4" vertex="1" connectable="0">
                    <mxGeometry width="30" height="20" as="geometry"/>
                </mxCell>
                <mxCell id="NpeDpYfCRGFBXlgMX1ir-6" value="emp_area" style="shape=partialRectangle;top=0;left=0;right=0;bottom=0;align=left;verticalAlign=top;fillColor=none;spacingLeft=33;spacingRight=3;overflow=hidden;rotatable=0;points=[[0,0.5],[1,0.5]];portConstraint=eastwest;dropTarget=0;fontSize=10;fontFamily=Tahoma;spacing=2;strokeColor=#80A9E3;dashed=1;fontColor=#808080;" parent="NpeDpYfCRGFBXlgMX1ir-1" vertex="1">
                    <mxGeometry y="86" width="160" height="20" as="geometry"/>
                </mxCell>
                <mxCell id="NpeDpYfCRGFBXlgMX1ir-7" value="" style="shape=partialRectangle;top=0;left=0;bottom=0;fillColor=none;align=left;verticalAlign=top;spacingLeft=4;spacingRight=4;overflow=hidden;rotatable=0;points=[];portConstraint=eastwest;part=1;fontSize=12;strokeColor=#80A9E3;" parent="NpeDpYfCRGFBXlgMX1ir-6" vertex="1" connectable="0">
                    <mxGeometry width="30" height="20" as="geometry"/>
                </mxCell>
                <mxCell id="NpeDpYfCRGFBXlgMX1ir-27" value="pos_id" style="shape=partialRectangle;top=0;left=0;right=0;bottom=0;align=left;verticalAlign=top;fillColor=none;spacingLeft=33;spacingRight=3;overflow=hidden;rotatable=0;points=[[0,0.5],[1,0.5]];portConstraint=eastwest;dropTarget=0;fontSize=10;fontFamily=Tahoma;spacing=0;fontStyle=1;fontColor=#007FFF;" parent="NpeDpYfCRGFBXlgMX1ir-1" vertex="1">
                    <mxGeometry y="106" width="160" height="20" as="geometry"/>
                </mxCell>
                <mxCell id="NpeDpYfCRGFBXlgMX1ir-28" value="FK" style="shape=partialRectangle;top=0;left=0;bottom=0;fillColor=none;align=left;verticalAlign=top;spacingLeft=4;spacingRight=4;overflow=hidden;rotatable=0;points=[];portConstraint=eastwest;part=1;fontSize=10;strokeColor=#80A9E3;fontColor=#007FFF;fontStyle=1" parent="NpeDpYfCRGFBXlgMX1ir-27" vertex="1" connectable="0">
                    <mxGeometry width="30" height="20" as="geometry"/>
                </mxCell>
                <mxCell id="NpeDpYfCRGFBXlgMX1ir-10" value="" style="shape=partialRectangle;top=0;left=0;right=0;bottom=0;align=left;verticalAlign=top;fillColor=none;spacingLeft=33;spacingRight=3;overflow=hidden;rotatable=0;points=[[0,0.5],[1,0.5]];portConstraint=eastwest;dropTarget=0;fontSize=10;fontFamily=Tahoma;spacing=2;" parent="NpeDpYfCRGFBXlgMX1ir-1" vertex="1">
                    <mxGeometry y="126" width="160" height="16" as="geometry"/>
                </mxCell>
                <mxCell id="NpeDpYfCRGFBXlgMX1ir-11" value="" style="shape=partialRectangle;top=0;left=0;bottom=0;fillColor=none;align=left;verticalAlign=top;spacingLeft=4;spacingRight=4;overflow=hidden;rotatable=0;points=[];portConstraint=eastwest;part=1;fontSize=12;strokeColor=#80A9E3;" parent="NpeDpYfCRGFBXlgMX1ir-10" vertex="1" connectable="0">
                    <mxGeometry width="30" height="16" as="geometry"/>
                </mxCell>
                <mxCell id="NpeDpYfCRGFBXlgMX1ir-15" style="edgeStyle=orthogonalEdgeStyle;rounded=1;orthogonalLoop=1;jettySize=auto;html=1;entryX=0;entryY=0.5;entryDx=0;entryDy=0;fontFamily=Tahoma;fontSize=10;fontColor=#007FFF;strokeColor=#007FFF;strokeWidth=2;endFill=1;endArrow=ERzeroToMany;startFill=1;startArrow=ERzeroToOne;" parent="1" source="NpeDpYfCRGFBXlgMX1ir-2" target="NpeDpYfCRGFBXlgMX1ir-12" edge="1">
                    <mxGeometry relative="1" as="geometry"/>
                </mxCell>
                <mxCell id="NpeDpYfCRGFBXlgMX1ir-16" value="ctt_post" style="swimlane;fontStyle=1;childLayout=stackLayout;horizontal=1;startSize=26;fillColor=#66B2FF;horizontalStack=0;resizeParent=1;resizeParentMax=0;resizeLast=0;collapsible=1;marginBottom=0;swimlaneFillColor=#ffffff;align=center;fontSize=11;strokeColor=#66B2FF;strokeWidth=2;rounded=1;fontColor=#FFFFFF;fontFamily=Tahoma;" parent="1" vertex="1">
                    <mxGeometry x="391.00000000000006" y="570" width="160" height="122" as="geometry"/>
                </mxCell>
                <mxCell id="NpeDpYfCRGFBXlgMX1ir-17" value="pos_id" style="shape=partialRectangle;top=0;left=0;right=0;bottom=1;align=left;verticalAlign=middle;fillColor=none;spacingLeft=34;spacingRight=4;overflow=hidden;rotatable=0;points=[[0,0.5],[1,0.5]];portConstraint=eastwest;dropTarget=0;fontStyle=1;fontSize=10;fontFamily=Tahoma;strokeColor=#80A9E3;fontColor=#808080;" parent="NpeDpYfCRGFBXlgMX1ir-16" vertex="1">
                    <mxGeometry y="26" width="160" height="20" as="geometry"/>
                </mxCell>
                <mxCell id="NpeDpYfCRGFBXlgMX1ir-18" value="PK" style="shape=partialRectangle;top=0;left=0;bottom=0;fillColor=none;align=left;verticalAlign=middle;spacingLeft=4;spacingRight=4;overflow=hidden;rotatable=0;points=[];portConstraint=eastwest;part=1;fontSize=10;fontFamily=Tahoma;fontStyle=1;fontColor=#007FFF;strokeColor=#80A9E3;" parent="NpeDpYfCRGFBXlgMX1ir-17" vertex="1" connectable="0">
                    <mxGeometry width="30" height="20" as="geometry"/>
                </mxCell>
                <mxCell id="NpeDpYfCRGFBXlgMX1ir-19" value="pos_name" style="shape=partialRectangle;top=0;left=0;right=0;bottom=0;align=left;verticalAlign=top;fillColor=none;spacingLeft=33;spacingRight=3;overflow=hidden;rotatable=0;points=[[0,0.5],[1,0.5]];portConstraint=eastwest;dropTarget=0;fontSize=10;fontFamily=Tahoma;spacing=2;dashed=1;strokeColor=#80A9E3;fontColor=#808080;" parent="NpeDpYfCRGFBXlgMX1ir-16" vertex="1">
                    <mxGeometry y="46" width="160" height="20" as="geometry"/>
                </mxCell>
                <mxCell id="NpeDpYfCRGFBXlgMX1ir-20" value="" style="shape=partialRectangle;top=0;left=0;bottom=0;fillColor=none;align=left;verticalAlign=top;spacingLeft=4;spacingRight=4;overflow=hidden;rotatable=0;points=[];portConstraint=eastwest;part=1;fontSize=12;strokeColor=#80A9E3;" parent="NpeDpYfCRGFBXlgMX1ir-19" vertex="1" connectable="0">
                    <mxGeometry width="30" height="20" as="geometry"/>
                </mxCell>
                <mxCell id="NpeDpYfCRGFBXlgMX1ir-21" value="pos_description" style="shape=partialRectangle;top=0;left=0;right=0;bottom=0;align=left;verticalAlign=top;fillColor=none;spacingLeft=33;spacingRight=3;overflow=hidden;rotatable=0;points=[[0,0.5],[1,0.5]];portConstraint=eastwest;dropTarget=0;fontSize=10;fontFamily=Tahoma;spacing=2;strokeColor=#80A9E3;dashed=1;fontColor=#808080;" parent="NpeDpYfCRGFBXlgMX1ir-16" vertex="1">
                    <mxGeometry y="66" width="160" height="20" as="geometry"/>
                </mxCell>
                <mxCell id="NpeDpYfCRGFBXlgMX1ir-22" value="" style="shape=partialRectangle;top=0;left=0;bottom=0;fillColor=none;align=left;verticalAlign=top;spacingLeft=4;spacingRight=4;overflow=hidden;rotatable=0;points=[];portConstraint=eastwest;part=1;fontSize=12;strokeColor=#80A9E3;" parent="NpeDpYfCRGFBXlgMX1ir-21" vertex="1" connectable="0">
                    <mxGeometry width="30" height="20" as="geometry"/>
                </mxCell>
                <mxCell id="NpeDpYfCRGFBXlgMX1ir-23" value="pos_status" style="shape=partialRectangle;top=0;left=0;right=0;bottom=0;align=left;verticalAlign=top;fillColor=none;spacingLeft=33;spacingRight=3;overflow=hidden;rotatable=0;points=[[0,0.5],[1,0.5]];portConstraint=eastwest;dropTarget=0;fontSize=10;fontFamily=Tahoma;spacing=2;fontColor=#808080;" parent="NpeDpYfCRGFBXlgMX1ir-16" vertex="1">
                    <mxGeometry y="86" width="160" height="20" as="geometry"/>
                </mxCell>
                <mxCell id="NpeDpYfCRGFBXlgMX1ir-24" value="" style="shape=partialRectangle;top=0;left=0;bottom=0;fillColor=none;align=left;verticalAlign=top;spacingLeft=4;spacingRight=4;overflow=hidden;rotatable=0;points=[];portConstraint=eastwest;part=1;fontSize=12;strokeColor=#80A9E3;" parent="NpeDpYfCRGFBXlgMX1ir-23" vertex="1" connectable="0">
                    <mxGeometry width="30" height="20" as="geometry"/>
                </mxCell>
                <mxCell id="NpeDpYfCRGFBXlgMX1ir-25" value="" style="shape=partialRectangle;top=0;left=0;right=0;bottom=0;align=left;verticalAlign=top;fillColor=none;spacingLeft=33;spacingRight=3;overflow=hidden;rotatable=0;points=[[0,0.5],[1,0.5]];portConstraint=eastwest;dropTarget=0;fontSize=10;fontFamily=Tahoma;spacing=2;" parent="NpeDpYfCRGFBXlgMX1ir-16" vertex="1">
                    <mxGeometry y="106" width="160" height="16" as="geometry"/>
                </mxCell>
                <mxCell id="NpeDpYfCRGFBXlgMX1ir-26" value="" style="shape=partialRectangle;top=0;left=0;bottom=0;fillColor=none;align=left;verticalAlign=top;spacingLeft=4;spacingRight=4;overflow=hidden;rotatable=0;points=[];portConstraint=eastwest;part=1;fontSize=12;strokeColor=#80A9E3;" parent="NpeDpYfCRGFBXlgMX1ir-25" vertex="1" connectable="0">
                    <mxGeometry width="30" height="16" as="geometry"/>
                </mxCell>
                <mxCell id="NpeDpYfCRGFBXlgMX1ir-29" style="edgeStyle=orthogonalEdgeStyle;rounded=1;orthogonalLoop=1;jettySize=auto;html=1;entryX=1;entryY=0.5;entryDx=0;entryDy=0;fontFamily=Tahoma;fontSize=10;fontColor=#007FFF;strokeColor=#007FFF;strokeWidth=2;endFill=1;endArrow=ERzeroToMany;startFill=1;startArrow=ERzeroToOne;" parent="1" source="NpeDpYfCRGFBXlgMX1ir-17" target="NpeDpYfCRGFBXlgMX1ir-27" edge="1">
                    <mxGeometry relative="1" as="geometry"/>
                </mxCell>
                <mxCell id="2ElAnhHRASjZXcA__IW0-1" value="ctt_menu" style="swimlane;fontStyle=1;childLayout=stackLayout;horizontal=1;startSize=26;fillColor=#CC0000;horizontalStack=0;resizeParent=1;resizeParentMax=0;resizeLast=0;collapsible=1;marginBottom=0;swimlaneFillColor=#ffffff;align=center;fontSize=11;strokeColor=#CC0000;strokeWidth=2;rounded=1;fontColor=#FFFFFF;fontFamily=Tahoma;" parent="1" vertex="1">
                    <mxGeometry x="860" y="236" width="160" height="142" as="geometry"/>
                </mxCell>
                <mxCell id="2ElAnhHRASjZXcA__IW0-2" value="mnu_id" style="shape=partialRectangle;top=0;left=0;right=0;bottom=1;align=left;verticalAlign=middle;fillColor=none;spacingLeft=33;spacingRight=4;overflow=hidden;rotatable=0;points=[[0,0.5],[1,0.5]];portConstraint=eastwest;dropTarget=0;fontStyle=1;fontSize=10;fontFamily=Tahoma;strokeColor=#CC0000;spacing=0;fontColor=#808080;" parent="2ElAnhHRASjZXcA__IW0-1" vertex="1">
                    <mxGeometry y="26" width="160" height="20" as="geometry"/>
                </mxCell>
                <mxCell id="2ElAnhHRASjZXcA__IW0-3" value="PK" style="shape=partialRectangle;top=0;left=0;bottom=0;fillColor=none;align=left;verticalAlign=middle;spacingLeft=4;spacingRight=4;overflow=hidden;rotatable=0;points=[];portConstraint=eastwest;part=1;fontSize=10;fontFamily=Tahoma;fontStyle=1;fontColor=#CC0000;strokeColor=#CC0000;" parent="2ElAnhHRASjZXcA__IW0-2" vertex="1" connectable="0">
                    <mxGeometry width="30" height="20" as="geometry"/>
                </mxCell>
                <mxCell id="2ElAnhHRASjZXcA__IW0-17" value="mnu_parent" style="shape=partialRectangle;top=0;left=0;right=0;bottom=0;align=left;verticalAlign=top;fillColor=none;spacingLeft=33;spacingRight=3;overflow=hidden;rotatable=0;points=[[0,0.5],[1,0.5]];portConstraint=eastwest;dropTarget=0;fontSize=10;fontFamily=Tahoma;spacing=0;strokeColor=#80A9E3;dashed=1;fontColor=#808080;" parent="2ElAnhHRASjZXcA__IW0-1" vertex="1">
                    <mxGeometry y="46" width="160" height="20" as="geometry"/>
                </mxCell>
                <mxCell id="2ElAnhHRASjZXcA__IW0-18" value="" style="shape=partialRectangle;top=0;left=0;bottom=0;fillColor=none;align=left;verticalAlign=top;spacingLeft=4;spacingRight=4;overflow=hidden;rotatable=0;points=[];portConstraint=eastwest;part=1;fontSize=12;strokeColor=#CC0000;" parent="2ElAnhHRASjZXcA__IW0-17" vertex="1" connectable="0">
                    <mxGeometry width="30" height="20" as="geometry"/>
                </mxCell>
                <mxCell id="2ElAnhHRASjZXcA__IW0-6" value="mnu_item" style="shape=partialRectangle;top=0;left=0;right=0;bottom=0;align=left;verticalAlign=top;fillColor=none;spacingLeft=33;spacingRight=3;overflow=hidden;rotatable=0;points=[[0,0.5],[1,0.5]];portConstraint=eastwest;dropTarget=0;fontSize=10;fontFamily=Tahoma;spacing=0;strokeColor=#80A9E3;dashed=1;fontColor=#808080;" parent="2ElAnhHRASjZXcA__IW0-1" vertex="1">
                    <mxGeometry y="66" width="160" height="20" as="geometry"/>
                </mxCell>
                <mxCell id="2ElAnhHRASjZXcA__IW0-7" value="" style="shape=partialRectangle;top=0;left=0;bottom=0;fillColor=none;align=left;verticalAlign=top;spacingLeft=4;spacingRight=4;overflow=hidden;rotatable=0;points=[];portConstraint=eastwest;part=1;fontSize=12;strokeColor=#CC0000;" parent="2ElAnhHRASjZXcA__IW0-6" vertex="1" connectable="0">
                    <mxGeometry width="30" height="20" as="geometry"/>
                </mxCell>
                <mxCell id="2ElAnhHRASjZXcA__IW0-19" value="mnu_description" style="shape=partialRectangle;top=0;left=0;right=0;bottom=0;align=left;verticalAlign=top;fillColor=none;spacingLeft=33;spacingRight=3;overflow=hidden;rotatable=0;points=[[0,0.5],[1,0.5]];portConstraint=eastwest;dropTarget=0;fontSize=10;fontFamily=Tahoma;spacing=0;strokeColor=#80A9E3;dashed=1;fontColor=#808080;" parent="2ElAnhHRASjZXcA__IW0-1" vertex="1">
                    <mxGeometry y="86" width="160" height="20" as="geometry"/>
                </mxCell>
                <mxCell id="2ElAnhHRASjZXcA__IW0-20" value="" style="shape=partialRectangle;top=0;left=0;bottom=0;fillColor=none;align=left;verticalAlign=top;spacingLeft=4;spacingRight=4;overflow=hidden;rotatable=0;points=[];portConstraint=eastwest;part=1;fontSize=12;strokeColor=#CC0000;" parent="2ElAnhHRASjZXcA__IW0-19" vertex="1" connectable="0">
                    <mxGeometry width="30" height="20" as="geometry"/>
                </mxCell>
                <mxCell id="2ElAnhHRASjZXcA__IW0-12" value="mod_id" style="shape=partialRectangle;top=0;left=0;right=0;bottom=0;align=left;verticalAlign=top;fillColor=none;spacingLeft=33;spacingRight=3;overflow=hidden;rotatable=0;points=[[0,0.5],[1,0.5]];portConstraint=eastwest;dropTarget=0;fontSize=10;fontFamily=Tahoma;spacing=0;fontStyle=1;fontColor=#CC0000;" parent="2ElAnhHRASjZXcA__IW0-1" vertex="1">
                    <mxGeometry y="106" width="160" height="20" as="geometry"/>
                </mxCell>
                <mxCell id="2ElAnhHRASjZXcA__IW0-13" value="FK" style="shape=partialRectangle;top=0;left=0;bottom=0;fillColor=none;align=left;verticalAlign=top;spacingLeft=4;spacingRight=4;overflow=hidden;rotatable=0;points=[];portConstraint=eastwest;part=1;fontSize=10;strokeColor=#CC0000;fontColor=#CC0000;fontStyle=1" parent="2ElAnhHRASjZXcA__IW0-12" vertex="1" connectable="0">
                    <mxGeometry width="30" height="20" as="geometry"/>
                </mxCell>
                <mxCell id="2ElAnhHRASjZXcA__IW0-10" value="" style="shape=partialRectangle;top=0;left=0;right=0;bottom=0;align=left;verticalAlign=top;fillColor=none;spacingLeft=33;spacingRight=3;overflow=hidden;rotatable=0;points=[[0,0.5],[1,0.5]];portConstraint=eastwest;dropTarget=0;fontSize=10;fontFamily=Tahoma;spacing=2;" parent="2ElAnhHRASjZXcA__IW0-1" vertex="1">
                    <mxGeometry y="126" width="160" height="16" as="geometry"/>
                </mxCell>
                <mxCell id="2ElAnhHRASjZXcA__IW0-11" value="" style="shape=partialRectangle;top=0;left=0;bottom=0;fillColor=none;align=left;verticalAlign=top;spacingLeft=4;spacingRight=4;overflow=hidden;rotatable=0;points=[];portConstraint=eastwest;part=1;fontSize=12;strokeColor=#CC0000;" parent="2ElAnhHRASjZXcA__IW0-10" vertex="1" connectable="0">
                    <mxGeometry width="30" height="16" as="geometry"/>
                </mxCell>
                <mxCell id="2ElAnhHRASjZXcA__IW0-14" style="edgeStyle=orthogonalEdgeStyle;rounded=1;orthogonalLoop=1;jettySize=auto;html=1;entryX=0;entryY=0.5;entryDx=0;entryDy=0;fontColor=#007FFF;fontFamily=Tahoma;fontSize=10;strokeColor=#007FFF;strokeWidth=2;endFill=1;endArrow=ERzeroToOne;startFill=1;startArrow=ERzeroToOne;dashed=1;dashPattern=1 1;" parent="1" source="DTwomelHDch7XrresBYj-38" target="2ElAnhHRASjZXcA__IW0-12" edge="1">
                    <mxGeometry relative="1" as="geometry"/>
                </mxCell>
            </root>
        </mxGraphModel>
    </diagram>
</mxfile>